<svg version="1.2" xmlns="http://www.w3.org/2000/svg" viewBox="0 0 161 70" width="161" height="70">
	<title>letters-svg</title>
	<defs>
		<clipPath clipPathUnits="userSpaceOnUse" id="cp1">
			<path d="m-82 0h70v70h-70z"/>
		</clipPath>
		<clipPath clipPathUnits="userSpaceOnUse" id="cp2">
			<path d="m4 23h156.11v24h-156.11z"/>
		</clipPath>
	</defs>
	<style>
		.s0 { fill: #92c83e } 
		.s1 { fill: #ffffff } 
		.s2 { fill: #fbb03b } 
		.s3 { fill: #ed1e79 } 
		.s4 { fill: #3fa9f5 } 
		.s5 { fill: #000000 } 
	</style>
	<g id="Clip-Path" clip-path="url(#cp1)">
		<g>
			<path class="s0" d="m-17.2 0h-32.1c-2.9 0-5.2 2.3-5.2 5.2v26.6h37.3c2.8 0 5.1-2.3 5.1-5.2v-21.4c0.1-2.9-2.2-5.2-5.1-5.2z"/>
			<path class="s1" d="m-43.2 18.4c1.4 0 2.6-1.1 2.6-2.5 0-1.4-1.2-2.5-2.6-2.5-1.4 0-2.5 1.1-2.5 2.5 0 1.4 1.1 2.5 2.5 2.5z"/>
			<path class="s1" d="m-33.3 18.4c1.4 0 2.6-1.1 2.6-2.5 0-1.4-1.2-2.5-2.6-2.5-1.4 0-2.5 1.1-2.5 2.5 0 1.4 1.1 2.5 2.5 2.5z"/>
			<path class="s1" d="m-23.4 18.4c1.4 0 2.6-1.1 2.6-2.5 0-1.4-1.2-2.5-2.6-2.5-1.4 0-2.5 1.1-2.5 2.5 0 1.4 1.1 2.5 2.5 2.5z"/>
			<path class="s2" d="m-76.7 37.9c-2.8 0-5.1 2.3-5.1 5.2v21.7c0 2.8 2.3 5.1 5.1 5.1h32.2c2.8 0 5.1-2.3 5.1-5.1v-26.9h-37.3z"/>
			<path class="s1" d="m-70.5 56.5c1.4 0 2.5-1.1 2.5-2.5 0-1.4-1.1-2.6-2.5-2.6-1.4 0-2.6 1.2-2.6 2.6 0 1.4 1.2 2.5 2.6 2.5z"/>
			<path class="s1" d="m-60.6 56.5c1.4 0 2.5-1.1 2.5-2.5 0-1.4-1.1-2.6-2.5-2.6-1.4 0-2.6 1.2-2.6 2.6 0 1.4 1.2 2.5 2.6 2.5z"/>
			<path class="s1" d="m-50.7 56.5c1.4 0 2.5-1.1 2.5-2.5 0-1.4-1.1-2.6-2.5-2.6-1.4 0-2.5 1.2-2.5 2.6 0 1.4 1.1 2.5 2.5 2.5z"/>
			<path class="s3" d="m-60.6 21.1v10.7h-10.7c-5.9 0-10.7-4.8-10.7-10.7 0-5.9 4.8-10.7 10.7-10.7 5.9 0 10.7 4.8 10.7 10.7z"/>
			<path class="s4" d="m-33.4 48.6v-10.7h10.7c6 0 10.8 4.8 10.8 10.7 0 5.9-4.8 10.7-10.8 10.7-5.9 0-10.7-4.8-10.7-10.7z"/>
		</g>
	</g>
	<g id="Clip-Path" clip-path="url(#cp2)">
		<g>
			<path fill-rule="evenodd" class="s5" d="m21.8 26.3q3.2 3 3.2 8.6 0 2.9-0.8 5-0.8 2.2-2.4 3.7-1.6 1.5-3.9 2.3-2.2 0.8-5.2 0.8h-6.4q-1.1 0-1.7-0.6-0.6-0.6-0.6-1.7v-18.9q0-1.1 0.6-1.7 0.6-0.5 1.7-0.5h6.4q5.9 0 9.1 3zm-1.3 8.6q0-4.1-2-6.1-2-2-6.1-2h-4.2v16.4h4.2q2.1 0 3.6-0.6 1.5-0.5 2.5-1.5 1-1 1.5-2.5 0.5-1.6 0.5-3.7z"/>
			<path fill-rule="evenodd" class="s5" d="m48 44.2q0.4 0.8 0.3 1.4-0.1 0.6-0.6 1-0.4 0.3-1.2 0.3-0.9 0-1.5-0.4-0.5-0.5-0.9-1.4l-1.6-3.9h-11.4l-1.7 3.9q-0.4 1-0.9 1.4-0.4 0.4-1.3 0.4-0.8 0-1.3-0.3-0.5-0.4-0.6-1-0.1-0.6 0.3-1.4l8.7-19.4q0.5-1 1.1-1.4c0.4-0.3 0.9-0.4 1.4-0.4q0.7 0 1.4 0.4 0.6 0.4 1 1.4zm-15.5-6.3h8.5l-4.2-10h-0.1z"/>
			<path fill-rule="evenodd" class="s5" d="m67.9 36.2q1.4 1.5 1.4 3.9 0 3.1-2.1 4.9-2.1 1.7-5.9 1.7h-8.3q-1.1 0-1.7-0.6-0.6-0.6-0.6-1.7v-18.9q0-1.1 0.6-1.7 0.6-0.5 1.7-0.5h7.9q2.5 0 4.2 0.7 1.8 0.7 2.7 2.1 0.9 1.3 0.9 3.2 0 2.2-1.2 3.6-1 1.1-2.5 1.7 1.8 0.5 2.9 1.6zm-13.1-3h5.4q2.2 0 3.3-0.9 1.1-0.8 1.1-2.5 0-1.6-1.1-2.5-1.1-0.8-3.3-0.8h-5.4zm10.4 6.7q0-1.8-1.1-2.6-1.1-0.9-3.3-0.9h-6v7h6q2.2 0 3.3-0.8c0.7-0.6 1.1-1.5 1.1-2.7z"/>
			<path class="s5" d="m86 30.2q-1 0-1.6 0.5-0.5 0.5-0.5 1.6v7.3q0 1.9-1.1 3-1 1.1-2.7 1.1-1.5 0-2.2-0.8-0.7-0.8-0.7-2.5v-8.1q0-1.1-0.5-1.6-0.6-0.5-1.6-0.5-1 0-1.5 0.5-0.5 0.5-0.5 1.6v8q0 2.2 0.6 3.7 0.7 1.5 2 2.3 1.3 0.7 3.3 0.7c1.4 0 2.4-0.3 3.4-1q1-0.7 1.6-1.8v0.6q0 1 0.5 1.6 0.6 0.5 1.5 0.5 2.1 0 2.1-2.1v-12.5q0-1.1-0.6-1.6-0.5-0.5-1.5-0.5z"/>
			<path fill-rule="evenodd" class="s5" d="m105.5 31.1q1.6 1 2.5 2.9c0.6 1.3 0.9 2.8 0.9 4.5q0 2.6-0.9 4.5-0.9 1.9-2.5 3c-1.1 0.7-2.4 1-3.7 1q-2.1 0-3.7-1-1.1-0.8-1.6-1.9v0.7q0 1-0.6 1.6-0.5 0.5-1.5 0.5-1 0-1.5-0.5-0.5-0.6-0.5-1.6v-19.7q0-1 0.5-1.6 0.5-0.5 1.5-0.5 1 0 1.6 0.5 0.5 0.6 0.5 1.6v7.7q0.6-1 1.7-1.7 1.5-1 3.5-1 2.2 0 3.8 1zm-0.8 7.4q0-2.6-1.1-3.9-1.2-1.3-3-1.3-1.3 0-2.2 0.5-0.9 0.6-1.4 1.8-0.6 1.2-0.6 2.9 0 2.7 1.2 4 1.1 1.4 3 1.4 1.2 0 2.1-0.6 0.9-0.6 1.5-1.8 0.5-1.2 0.5-3z"/>
			<path fill-rule="evenodd" class="s5" d="m125.4 31.1q1.6 1 2.5 2.9c0.6 1.3 0.9 2.8 0.9 4.5q0 2.6-0.9 4.5-0.9 1.9-2.5 3c-1.1 0.7-2.4 1-3.7 1q-2.1 0-3.6-1-1.2-0.8-1.7-1.9v0.7q0 1-0.6 1.6-0.5 0.5-1.4 0.5-1 0-1.6-0.5-0.5-0.6-0.5-1.6v-19.7q0-1 0.5-1.6 0.6-0.5 1.6-0.5 1 0 1.5 0.5 0.5 0.6 0.5 1.6v7.7q0.6-1 1.7-1.7 1.5-1 3.5-1 2.2 0 3.8 1zm-0.8 7.4q0-2.6-1.1-3.9-1.2-1.3-3-1.3-1.3 0-2.2 0.5-0.9 0.6-1.4 1.8-0.5 1.2-0.5 2.9 0 2.7 1.1 4 1.1 1.4 3 1.4 1.2 0 2.1-0.6 1-0.6 1.5-1.8 0.5-1.2 0.5-3z"/>
			<path class="s5" d="m139.8 43.5q-0.2 0-0.4 0.1-0.3 0-0.5 0-1.2 0-1.9-0.7-0.6-0.8-0.6-2.3v-15.5q0-1-0.6-1.6-0.5-0.5-1.5-0.5-1 0-1.6 0.5-0.5 0.6-0.5 1.6v15.7q0 3 1.4 4.6 1.4 1.6 4.2 1.6 0.3 0 0.7 0 0.3-0.1 0.7-0.1 0.7-0.1 1.1-0.6 0.3-0.4 0.3-1.3 0-0.9-0.2-1.2-0.1-0.4-0.6-0.3z"/>
			<path fill-rule="evenodd" class="s5" d="m155.9 42.5q0.6 0.1 0.9 0.4 0.3 0.4 0.3 0.8 0.1 0.5-0.1 1-0.3 0.5-0.9 0.9-1.2 0.7-2.7 1.1-1.5 0.3-2.8 0.3-2.7 0-4.7-1-2-1.1-3.1-2.9c-0.7-1.3-1.1-2.8-1.1-4.5q0-2.6 1.1-4.4 1-1.9 2.9-3 1.8-1.1 4.2-1.1 1.7 0 3.1 0.6 1.4 0.5 2.3 1.6 1 1.1 1.5 2.6 0.5 1.5 0.5 3.4 0 0.6-0.4 0.9-0.4 0.3-1.2 0.3h-10q0.2 1.9 1.2 3 1.3 1.3 3.8 1.3 0.9 0.1 1.9-0.2 1.1-0.2 2.1-0.7 0.7-0.4 1.2-0.4zm-9.7-7.1q-0.4 0.7-0.5 1.7h8.2q-0.1-1.2-0.5-2.1-0.4-1-1.3-1.5-0.8-0.6-2.1-0.6-1.4 0-2.3 0.7-1 0.6-1.5 1.8z"/>
		</g>
	</g>
</svg>